# Blender v3.1.2 OBJ File: ''
# www.blender.org
mtllib moufsakaTail.mtl
o Muffa_Cube.002_Muffa_Cube.003
v 0.444214 1.222787 0.795147
v 0.271902 1.183681 0.795147
v 0.000000 1.541645 0.786108
v 0.271902 1.493714 0.795147
v 0.503660 1.339102 0.795147
v 0.000000 0.882387 1.191240
v 0.271902 0.899989 1.191240
v 0.271902 0.617313 1.641535
v 0.000000 0.599712 1.641535
v 0.271902 0.386633 2.088999
v 0.000000 0.369032 2.088999
v 0.454254 0.938995 1.191240
v 0.454254 0.656319 1.641535
v 0.000000 1.166180 0.795147
v 0.444214 1.454708 0.795147
v 0.454254 0.468987 2.088999
v 0.000000 0.414137 2.529802
v 0.000000 1.797179 1.186596
v 0.271902 1.563024 1.154427
v 0.271902 1.010260 2.183678
v 0.000000 0.994249 2.348930
v 0.000000 0.611827 2.564474
v 0.271902 0.754117 2.376448
v 0.690695 1.339102 1.154427
v 0.914180 1.102119 1.874057
v 0.550501 0.573340 2.388386
v 0.271902 1.238540 1.962482
v 0.000000 1.329684 2.099744
v 0.271902 1.452886 1.671280
v 0.000000 1.644510 1.693733
v 0.271902 1.535572 1.388100
v 0.000000 1.765697 1.415512
v -0.271902 1.183681 0.795147
v -0.444214 1.222787 0.795147
v -0.271902 1.493714 0.795147
v -0.503660 1.339102 0.795147
v -0.271902 0.617313 1.641535
v -0.271902 0.899989 1.191240
v -0.271902 0.386633 2.088999
v -0.454254 0.938995 1.191240
v -0.454254 0.656319 1.641535
v -0.444214 1.454708 0.795147
v -0.454254 0.468987 2.088999
v -0.271902 1.563024 1.154427
v -0.271902 1.010260 2.183678
v -0.271902 0.754117 2.376448
v -0.690695 1.339102 1.154427
v -0.914180 1.102119 1.874057
v -0.550501 0.573340 2.388386
v -0.271902 1.238540 1.962482
v -0.271902 1.452886 1.671280
v -0.271902 1.535572 1.388100
v 0.747519 1.411552 1.148840
v 0.908715 1.143776 1.961979
v 0.274308 0.750554 2.529651
v 0.274308 1.039980 2.311833
v 0.000000 0.483596 2.759691
v 0.274308 1.586255 0.742876
v 0.469010 1.542181 0.742876
v 0.274308 1.633552 1.412877
v 0.274308 1.664571 1.148840
v 0.274308 1.297923 2.061894
v 0.537739 0.546286 2.543141
v 0.274308 1.540122 1.732854
v 0.476478 0.735523 2.589608
v 0.476478 1.612137 1.187163
v 0.598842 1.454238 1.933289
v -0.908715 1.143776 1.961979
v -0.747519 1.411552 1.148840
v -0.274308 1.039980 2.311833
v -0.274308 0.750554 2.529651
v -0.274308 1.586255 0.742876
v -0.469010 1.542181 0.742876
v -0.274308 1.664571 1.148840
v -0.274308 1.633552 1.412877
v -0.274308 1.297923 2.061894
v -0.537739 0.546286 2.543141
v -0.274308 1.540122 1.732854
v -0.476478 0.735523 2.589608
v -0.476478 1.612137 1.187163
v -0.598842 1.454238 1.933289
vt 0.375000 0.000000
vt 0.375000 0.000000
vt 0.375000 0.000000
vt 0.375000 0.000000
vt 0.375000 0.000000
vt 0.375000 0.000000
vt 0.375000 0.000000
vt 0.375000 0.000000
vt 0.375000 0.000000
vt 0.375000 0.000000
vt 0.375000 0.000000
vt 0.375000 0.000000
vt 0.375000 0.000000
vt 0.625000 0.000000
vt 0.625000 0.000000
vt 0.625000 0.000000
vt 0.625000 0.000000
vt 0.625000 0.000000
vt 0.625000 0.000000
vt 0.625000 0.000000
vt 0.625000 0.000000
vt 0.625000 0.000000
vt 0.500000 0.000000
vt 0.500000 0.000000
vt 0.500000 0.000000
vt 0.500000 0.000000
vt 0.500000 0.000000
vt 0.625000 0.000000
vt 0.625000 0.000000
vt 0.625000 0.000000
vt 0.625000 0.000000
vt 0.625000 0.000000
vt 0.625000 0.000000
vt 0.625000 0.000000
vt 0.375000 0.000000
vt 0.375000 0.000000
vt 0.375000 0.000000
vt 0.375000 0.000000
vt 0.375000 0.000000
vt 0.375000 0.000000
vt 0.375000 0.000000
vt 0.375000 0.000000
vt 0.625000 0.000000
vt 0.625000 0.000000
vt 0.625000 0.000000
vt 0.625000 0.000000
vt 0.500000 0.000000
vt 0.500000 0.000000
vt 0.500000 0.000000
vt 0.500000 0.000000
vt 0.625000 0.000000
vt 0.625000 0.000000
vt 0.625000 0.000000
vt 0.625000 0.000000
vt 0.500000 0.000000
vt 0.500000 0.000000
vt 0.625000 0.000000
vt 0.625000 0.000000
vt 0.625000 0.000000
vt 0.625000 0.000000
vt 0.625000 0.000000
vt 0.625000 0.000000
vt 0.625000 0.000000
vt 0.500000 0.000000
vt 0.625000 0.000000
vt 0.500000 0.000000
vt 0.625000 0.000000
vt 0.625000 0.000000
vt 0.625000 0.000000
vt 0.562500 0.000000
vt 0.500000 0.000000
vt 0.500000 0.000000
vt 0.625000 0.000000
vt 0.625000 0.000000
vt 0.625000 0.000000
vt 0.625000 0.000000
vt 0.625000 0.000000
vt 0.625000 0.000000
vt 0.500000 0.000000
vt 0.625000 0.000000
vt 0.625000 0.000000
vt 0.625000 0.000000
vt 0.625000 0.000000
vt 0.562500 0.000000
vn 0.0547 -0.8457 -0.5309
vn 0.0574 -0.8874 -0.4575
vn 0.1783 -0.8334 -0.5232
vn 0.3931 -0.8703 0.2968
vn 0.0643 -0.9927 0.1016
vn 0.2887 -0.8675 -0.4052
vn 0.1760 -0.7992 -0.5747
vn 0.0524 -0.8118 -0.5816
vn 0.4181 0.8353 -0.3571
vn 0.3637 0.5018 0.7848
vn 0.6109 -0.1368 0.7798
vn 0.8408 -0.4297 -0.3292
vn 0.7717 -0.4930 -0.4017
vn 0.7717 -0.4930 -0.4019
vn 0.7716 -0.4930 -0.4020
vn 0.7368 -0.5726 -0.3595
vn 0.7367 -0.6238 -0.2612
vn 0.8001 -0.5978 -0.0489
vn 0.3223 -0.9213 0.2175
vn 0.4583 0.5694 0.6824
vn 0.5093 0.6855 0.5203
vn 0.6052 0.7482 0.2717
vn 0.6524 0.7518 0.0958
vn 0.8070 0.4150 -0.4201
vn -0.0547 -0.8457 -0.5309
vn -0.0574 -0.8874 -0.4575
vn -0.1783 -0.8334 -0.5232
vn -0.3931 -0.8703 0.2968
vn -0.0643 -0.9927 0.1016
vn -0.2887 -0.8675 -0.4052
vn -0.1760 -0.7992 -0.5747
vn -0.0524 -0.8118 -0.5816
vn -0.4181 0.8353 -0.3571
vn -0.3637 0.5018 0.7848
vn -0.6109 -0.1368 0.7798
vn -0.8408 -0.4297 -0.3292
vn -0.7717 -0.4930 -0.4017
vn -0.7717 -0.4930 -0.4019
vn -0.7716 -0.4930 -0.4020
vn -0.7368 -0.5726 -0.3595
vn -0.7367 -0.6238 -0.2612
vn -0.8001 -0.5978 -0.0489
vn -0.3223 -0.9213 0.2175
vn -0.4583 0.5694 0.6824
vn -0.5093 0.6855 0.5203
vn -0.6052 0.7482 0.2717
vn -0.6524 0.7518 0.0958
vn -0.8070 0.4150 -0.4201
vn 0.9320 -0.2026 -0.3006
vn -0.9998 0.0126 0.0159
vn -0.9998 0.0120 0.0160
vn -0.9998 0.0145 0.0154
vn -0.7709 0.6285 -0.1033
vn 0.6128 -0.5261 -0.5897
vn -0.9997 0.0236 -0.0008
vn -0.9997 0.0234 0.0047
vn -0.9997 0.0233 0.0048
vn -0.9997 0.0236 -0.0009
vn -0.9998 0.0152 0.0151
vn -0.9998 0.0178 0.0135
vn 0.8733 -0.4779 0.0944
vn -0.9997 0.0185 0.0130
vn -0.9997 0.0226 0.0071
vn 0.2344 -0.9654 0.1142
vn 0.3818 -0.1020 0.9186
vn -0.1449 0.7271 0.6710
vn 0.2482 0.9539 -0.1685
vn 0.5768 0.8054 -0.1365
vn 0.2643 0.9533 0.1463
vn 0.6590 0.7475 0.0842
vn 0.7859 0.1048 0.6094
vn -0.1888 0.5905 0.7846
vn 0.0807 0.9568 0.2794
vn -0.1512 0.7961 0.5860
vn -0.0505 0.6950 0.7172
vn -0.9997 0.0234 -0.0045
vn 0.4821 0.5446 0.6863
vn 0.0007 0.6743 0.7385
vn -0.9320 -0.2026 -0.3006
vn 0.9998 0.0125 0.0159
vn 0.9998 0.0145 0.0154
vn 0.9998 0.0120 0.0160
vn 0.7709 0.6285 -0.1033
vn -0.6128 -0.5261 -0.5897
vn 0.9997 0.0236 -0.0008
vn 0.9997 0.0236 -0.0009
vn 0.9997 0.0233 0.0048
vn 0.9997 0.0234 0.0047
vn 0.9998 0.0152 0.0151
vn 0.9997 0.0178 0.0136
vn -0.8733 -0.4779 0.0944
vn 0.9997 0.0185 0.0130
vn 0.9997 0.0226 0.0071
vn -0.2344 -0.9654 0.1142
vn -0.3818 -0.1020 0.9186
vn 0.1449 0.7271 0.6710
vn -0.2482 0.9539 -0.1685
vn -0.5768 0.8054 -0.1365
vn -0.2643 0.9533 0.1463
vn -0.6590 0.7475 0.0842
vn -0.7859 0.1048 0.6094
vn 0.1888 0.5905 0.7846
vn -0.0807 0.9568 0.2794
vn 0.1512 0.7961 0.5860
vn 0.0505 0.6950 0.7172
vn 0.9997 0.0234 -0.0045
vn -0.4821 0.5446 0.6863
vn -0.0007 0.6743 0.7385
g Muffa_Cube.002_Muffa_Cube.003_black-fur
usemtl black-fur
s 1
f 6/1/1 7/2/1 8/3/1 9/4/1
f 9/4/2 8/3/2 10/5/2 11/6/2
f 12/7/3 13/8/3 8/3/3 7/2/3
f 16/9/4 17/10/4 10/5/4
f 11/6/5 10/5/5 17/10/5
f 13/8/6 16/9/6 10/5/6 8/3/6
f 1/11/7 12/7/7 7/2/7 2/12/7
f 14/13/8 2/12/8 7/2/8 6/1/8
f 4/14/9 3/15/9 18/16/9 19/17/9
f 20/18/10 21/19/10 22/20/10 23/21/10
f 23/21/11 22/20/11 17/22/11
f 1/11/12 5/23/12 12/7/12
f 5/23/13 24/24/14 12/7/14
f 24/24/14 25/25/15 12/7/14
f 12/7/16 25/25/16 13/8/16
f 13/8/17 25/25/17 16/9/17
f 25/25/18 26/26/18 16/9/18
f 26/26/19 17/27/19 16/9/19
f 21/19/20 20/18/20 27/28/20 28/29/20
f 28/29/21 27/28/21 29/30/21 30/31/21
f 30/31/22 29/30/22 31/32/22 32/33/22
f 19/17/23 18/16/23 32/33/23 31/32/23
f 5/23/24 15/34/24 24/24/24
f 6/1/25 9/4/25 37/35/25 38/36/25
f 9/4/26 11/6/26 39/37/26 37/35/26
f 40/38/27 38/36/27 37/35/27 41/39/27
f 43/40/28 39/37/28 17/10/28
f 11/6/29 17/10/29 39/37/29
f 41/39/30 37/35/30 39/37/30 43/40/30
f 34/41/31 33/42/31 38/36/31 40/38/31
f 14/13/32 6/1/32 38/36/32 33/42/32
f 35/43/33 44/44/33 18/16/33 3/15/33
f 45/45/34 46/46/34 22/20/34 21/19/34
f 46/46/35 17/22/35 22/20/35
f 34/41/36 40/38/36 36/47/36
f 36/47/37 40/38/38 47/48/38
f 47/48/38 40/38/38 48/49/39
f 40/38/40 41/39/40 48/49/40
f 41/39/41 43/40/41 48/49/41
f 48/49/42 43/40/42 49/50/42
f 49/50/43 43/40/43 17/27/43
f 21/19/44 28/29/44 50/51/44 45/45/44
f 28/29/45 30/31/45 51/52/45 50/51/45
f 30/31/46 32/33/46 52/53/46 51/52/46
f 44/44/47 52/53/47 32/33/47 18/16/47
f 36/47/48 47/48/48 42/54/48
g Muffa_Cube.002_Muffa_Cube.003_white-fur
usemtl white-fur
f 25/25/49 24/24/49 53/55/49 54/56/49
f 20/18/50 23/21/51 55/57/51 56/58/52
f 23/21/53 17/22/53 57/59/53 55/57/53
f 24/24/54 15/34/54 59/60/54 53/55/54
f 19/17/55 31/32/56 60/61/57 61/62/58
f 27/28/59 20/18/50 56/58/52 62/63/60
f 26/26/61 25/25/61 54/56/61 63/64/61
f 29/30/62 27/28/59 62/63/60 64/65/63
f 31/32/56 29/30/62 64/65/63 60/61/57
f 17/27/64 26/26/64 63/64/64 57/66/64
f 63/64/65 65/67/65 57/66/65
f 65/67/66 55/57/66 57/59/66
f 59/60/67 58/68/67 61/62/67 66/69/67
f 66/69/68 53/55/68 59/60/68
f 60/61/69 67/70/69 66/69/69 61/62/69
f 53/55/70 66/69/70 67/70/70 54/56/70
f 63/64/71 54/56/71 65/67/71
f 65/67/72 56/58/72 55/57/72
f 60/61/73 64/65/73 67/70/73
f 64/65/74 62/63/74 67/70/74
f 62/63/75 56/58/75 67/70/75
f 4/14/76 19/17/55 61/62/58 58/68/76
f 54/56/77 67/70/77 65/67/77
f 56/58/78 65/67/78 67/70/78
f 48/49/79 68/71/79 69/72/79 47/48/79
f 45/45/80 70/73/81 71/74/82 46/46/82
f 46/46/83 71/74/83 57/59/83 17/22/83
f 47/48/84 69/72/84 73/75/84 42/54/84
f 44/44/85 74/76/86 75/77/87 52/53/88
f 50/51/89 76/78/90 70/73/81 45/45/80
f 49/50/91 77/79/91 68/71/91 48/49/91
f 51/52/92 78/80/93 76/78/90 50/51/89
f 52/53/88 75/77/87 78/80/93 51/52/92
f 17/27/94 57/66/94 77/79/94 49/50/94
f 77/79/95 57/66/95 79/81/95
f 79/81/96 57/59/96 71/74/96
f 73/75/97 80/82/97 74/76/97 72/83/97
f 80/82/98 73/75/98 69/72/98
f 75/77/99 74/76/99 80/82/99 81/84/99
f 69/72/100 68/71/100 81/84/100 80/82/100
f 77/79/101 79/81/101 68/71/101
f 79/81/102 71/74/102 70/73/102
f 75/77/103 81/84/103 78/80/103
f 78/80/104 81/84/104 76/78/104
f 76/78/105 81/84/105 70/73/105
f 35/43/106 72/83/106 74/76/86 44/44/85
f 68/71/107 79/81/107 81/84/107
f 70/73/108 81/84/108 79/81/108
