# Blender v2.93.5 OBJ File: ''
# www.blender.org
mtllib crate2.mtl
o Mod_SmallCrate02_Mesh.003
v -0.360009 0.588543 0.360430
v 0.360010 0.588543 0.360430
v -0.360009 0.588544 -0.359589
v 0.360010 0.588544 -0.359589
v 0.360010 0.447421 -0.359589
v -0.360009 0.447421 -0.359589
v -0.360009 0.447421 0.360430
v 0.360010 0.447421 0.360430
v 0.360010 0.447421 -0.262639
v 0.360010 0.588544 -0.262639
v -0.360009 0.588544 -0.262639
v -0.360009 0.447421 -0.262639
v 0.360010 0.447421 0.263481
v 0.360010 0.588543 0.263481
v -0.360009 0.588543 0.263481
v -0.360009 0.447421 0.263481
v 0.258156 0.447421 0.360430
v 0.258156 0.588543 0.360430
v 0.258156 0.588543 0.263481
v 0.258156 0.588544 -0.262639
v 0.258156 0.588544 -0.359589
v 0.258156 0.447421 -0.359589
v -0.258156 0.447421 0.360430
v -0.258156 0.588543 0.360430
v -0.258156 0.588543 0.263481
v -0.258156 0.588544 -0.262639
v -0.258156 0.588544 -0.359589
v -0.258156 0.447421 -0.359589
v 0.242549 0.561132 0.247576
v 0.242549 0.561132 -0.246735
v -0.242548 0.561132 0.247576
v -0.242548 0.561132 -0.246735
v 0.317294 0.429988 -0.316873
v 0.227526 0.429988 -0.316873
v -0.317294 0.429988 -0.316873
v -0.317294 0.429988 -0.231427
v -0.317294 0.429988 0.317715
v -0.227525 0.429988 0.317715
v 0.317294 0.429988 0.317715
v 0.317294 0.429988 0.232268
v 0.317294 0.429988 -0.231427
v -0.317294 0.429988 0.232268
v 0.227526 0.429988 0.317715
v -0.227525 0.429988 -0.316873
v 0.000000 0.632281 0.000000
v 0.000000 0.000000 0.000000
v -0.341832 0.013554 0.329816
v -0.328043 -0.000000 0.328330
v -0.329768 0.013554 0.342091
v -0.328043 0.632281 0.328330
v -0.341832 0.618728 0.329816
v -0.329768 0.618728 0.342091
v -0.341832 0.618728 -0.329816
v -0.328043 0.632282 -0.328330
v -0.329768 0.618728 -0.342091
v -0.328043 0.000000 -0.328330
v -0.341832 0.013554 -0.329816
v -0.329768 0.013554 -0.342091
v 0.328043 -0.000000 0.328330
v 0.341832 0.013554 0.329816
v 0.329768 0.013554 0.342091
v 0.328043 0.632281 0.328330
v 0.329768 0.618728 0.342091
v 0.341832 0.618728 0.329816
v 0.328043 0.632282 -0.328330
v 0.341832 0.618728 -0.329816
v 0.329768 0.618728 -0.342091
v 0.328043 0.000000 -0.328330
v 0.329768 0.013554 -0.342091
v 0.341832 0.013554 -0.329816
v 0.000000 0.618728 -0.330442
v 0.000000 0.632282 -0.316883
v 0.000000 0.013554 -0.330442
v 0.000000 0.000000 -0.316883
v 0.000000 0.013554 0.336983
v 0.000000 -0.000000 0.323424
v 0.000000 0.618728 0.336983
v 0.000000 0.632281 0.323424
v -0.335862 0.013554 0.000000
v -0.322308 0.000000 0.000000
v 0.315766 0.000000 0.000000
v 0.329320 0.013554 0.000000
v -0.322308 0.632282 0.000000
v -0.335862 0.618728 0.000000
v 0.329320 0.618728 0.000000
v 0.315766 0.632281 0.000000
v 0.354274 0.165076 -0.359589
v -0.365718 0.158864 -0.359589
v 0.354274 0.165076 0.360430
v -0.365718 0.158864 0.360430
v -0.364501 0.017747 0.360430
v 0.355492 0.023959 0.360430
v 0.355492 0.023959 -0.359589
v -0.364501 0.017747 -0.359589
v -0.364501 0.017747 0.263481
v -0.365718 0.158864 0.263481
v 0.354274 0.165076 0.263481
v 0.355492 0.023959 0.263481
v -0.364501 0.017747 -0.262639
v -0.365718 0.158864 -0.262639
v 0.354274 0.165076 -0.262639
v 0.355492 0.023959 -0.262639
v -0.262651 0.018626 -0.359589
v -0.263869 0.159742 -0.359589
v -0.263869 0.159742 -0.262639
v -0.263869 0.159742 0.263481
v -0.263869 0.159742 0.360430
v -0.262651 0.018626 0.360430
v 0.253642 0.023080 -0.359589
v 0.252424 0.164197 -0.359589
v 0.252424 0.164197 -0.262639
v 0.252424 0.164197 0.263481
v 0.252424 0.164197 0.360430
v 0.253642 0.023080 0.360430
v -0.248025 0.132467 -0.246735
v -0.248025 0.132466 0.247576
v 0.237054 0.136652 -0.246735
v 0.237054 0.136652 0.247576
v -0.321636 0.000683 0.317715
v -0.231871 0.001457 0.317715
v 0.312928 0.006158 0.317715
v 0.312928 0.006158 0.232268
v 0.312928 0.006158 -0.316873
v 0.223163 0.005384 -0.316873
v -0.321636 0.000683 -0.316873
v -0.321636 0.000683 -0.231427
v -0.321636 0.000683 0.232268
v 0.312928 0.006158 -0.231427
v -0.231871 0.001458 -0.316873
v 0.223163 0.005384 0.317715
vt 0.654708 0.893185
vt 0.654708 0.878905
vt 0.674496 0.893185
vt 0.674496 0.878905
vt 0.731259 0.392442
vt 0.716977 0.392441
vt 0.731261 0.378848
vt 0.716978 0.378846
vt 0.072745 0.479134
vt 0.072745 0.464852
vt 0.092532 0.479134
vt 0.092532 0.464852
vt 0.973094 0.623629
vt 0.973094 0.610034
vt 0.992882 0.623629
vt 0.992882 0.610034
vt 0.497615 0.979242
vt 0.497615 0.992836
vt 0.477827 0.979242
vt 0.477827 0.992836
vt 0.973094 0.536265
vt 0.973094 0.522671
vt 0.992882 0.536265
vt 0.992882 0.522671
vt 0.731254 0.305075
vt 0.716973 0.305078
vt 0.731251 0.291480
vt 0.716969 0.291484
vt 0.497615 0.891878
vt 0.497615 0.905472
vt 0.477827 0.891878
vt 0.477827 0.905472
vt 0.654708 0.806509
vt 0.654708 0.792228
vt 0.674496 0.806509
vt 0.674496 0.792228
vt 0.644582 0.378853
vt 0.644584 0.392446
vt 0.630300 0.378855
vt 0.630303 0.392451
vt 0.644575 0.305084
vt 0.630294 0.305083
vt 0.644575 0.291491
vt 0.630294 0.291488
vt 0.092532 0.392457
vt 0.072745 0.392457
vt 0.092532 0.378176
vt 0.072745 0.378176
vt 0.899812 0.332337
vt 0.899812 0.404732
vt 0.895367 0.334525
vt 0.895367 0.402542
vt 0.049765 0.298693
vt 0.049765 0.368002
vt 0.045341 0.296463
vt 0.045341 0.370231
vt 0.333792 0.745087
vt 0.333792 0.813106
vt 0.329347 0.742899
vt 0.329347 0.815294
vt 0.755855 0.966409
vt 0.755855 0.897099
vt 0.760278 0.968639
vt 0.760278 0.894868
vt 0.335510 0.255865
vt 0.341705 0.262108
vt 0.335134 0.270293
vt 0.341576 0.274673
vt 0.335083 0.357355
vt 0.341332 0.351164
vt 0.348826 0.357730
vt 0.353289 0.351291
vt 0.436583 0.357780
vt 0.430388 0.351537
vt 0.436958 0.343352
vt 0.430517 0.338971
vt 0.437008 0.256289
vt 0.430759 0.262481
vt 0.423266 0.255914
vt 0.418802 0.262354
vt 0.349252 0.255605
vt 0.353663 0.262081
vt 0.422839 0.358039
vt 0.418428 0.351564
vt 0.437263 0.270721
vt 0.430784 0.275045
vt 0.334828 0.342924
vt 0.341307 0.338598
vt 0.184856 0.624855
vt 0.185425 0.578255
vt 0.187408 0.624314
vt 0.188131 0.578255
vt 0.186835 0.626859
vt 0.233429 0.626414
vt 0.233429 0.623706
vt 0.307922 0.467521
vt 0.307922 0.465107
vt 0.392777 0.467521
vt 0.392777 0.465107
vt 0.451902 0.744435
vt 0.449350 0.743894
vt 0.451334 0.697834
vt 0.448627 0.697834
vt 0.449923 0.746440
vt 0.403331 0.745993
vt 0.403331 0.743286
vt 0.451906 0.651234
vt 0.449355 0.651777
vt 0.449921 0.649231
vt 0.403331 0.650590
vt 0.403331 0.653300
vt 0.494270 0.253316
vt 0.494270 0.250904
vt 0.579125 0.253316
vt 0.579125 0.250904
vt 0.184853 0.531652
vt 0.187404 0.532195
vt 0.186838 0.529650
vt 0.233429 0.531010
vt 0.233429 0.533718
vt 0.281998 0.624852
vt 0.279445 0.624319
vt 0.280514 0.578255
vt 0.277807 0.578255
vt 0.307922 0.372618
vt 0.307922 0.370205
vt 0.392777 0.372618
vt 0.392777 0.370206
vt 0.280022 0.626862
vt 0.356736 0.746441
vt 0.357312 0.743898
vt 0.354760 0.744430
vt 0.356244 0.697834
vt 0.358952 0.697834
vt 0.354759 0.651236
vt 0.357308 0.651771
vt 0.494270 0.158367
vt 0.494270 0.155954
vt 0.579125 0.158367
vt 0.579125 0.155954
vt 0.356740 0.649228
vt 0.280020 0.529646
vt 0.279450 0.532190
vt 0.282001 0.531655
vt 0.403331 0.697833
vt 0.233429 0.578254
vt 0.579125 0.204636
vt 0.494270 0.204636
vt 0.392777 0.418863
vt 0.307922 0.418863
vt 0.685753 0.601893
vt 0.685753 0.648146
vt 0.600897 0.601893
vt 0.600897 0.648146
vt 0.489937 0.370205
vt 0.489937 0.416483
vt 0.405082 0.370205
vt 0.405082 0.416483
vt 0.600897 0.694400
vt 0.685753 0.694400
vt 0.405082 0.462761
vt 0.489937 0.462761
vt 0.654708 0.893185
vt 0.654708 0.878905
vt 0.674496 0.893185
vt 0.674496 0.878905
vt 0.731259 0.392442
vt 0.716977 0.392441
vt 0.731261 0.378848
vt 0.716978 0.378846
vt 0.072745 0.479134
vt 0.072745 0.464852
vt 0.092532 0.479134
vt 0.092532 0.464852
vt 0.973094 0.623629
vt 0.973094 0.610034
vt 0.992882 0.623629
vt 0.992882 0.610034
vt 0.497615 0.979242
vt 0.497615 0.992836
vt 0.477827 0.979242
vt 0.477827 0.992836
vt 0.973094 0.536265
vt 0.973094 0.522671
vt 0.992882 0.536265
vt 0.992882 0.522671
vt 0.731254 0.305075
vt 0.716973 0.305078
vt 0.731251 0.291480
vt 0.716969 0.291484
vt 0.497615 0.891878
vt 0.497615 0.905472
vt 0.477827 0.891878
vt 0.477827 0.905472
vt 0.654708 0.806509
vt 0.654708 0.792228
vt 0.674496 0.806509
vt 0.674496 0.792228
vt 0.644582 0.378853
vt 0.644584 0.392446
vt 0.630300 0.378855
vt 0.630303 0.392451
vt 0.644575 0.305084
vt 0.630294 0.305083
vt 0.644575 0.291491
vt 0.630294 0.291488
vt 0.092532 0.392457
vt 0.072745 0.392457
vt 0.092532 0.378176
vt 0.072745 0.378176
vt 0.899812 0.332337
vt 0.899812 0.404732
vt 0.895367 0.334525
vt 0.895367 0.402542
vt 0.049765 0.298693
vt 0.049765 0.368002
vt 0.045341 0.296463
vt 0.045341 0.370231
vt 0.333792 0.745087
vt 0.333792 0.813106
vt 0.329347 0.742899
vt 0.329347 0.815294
vt 0.755855 0.966409
vt 0.755855 0.897099
vt 0.760278 0.968639
vt 0.760278 0.894868
vt 0.335510 0.255865
vt 0.341705 0.262108
vt 0.335134 0.270293
vt 0.341576 0.274673
vt 0.335083 0.357355
vt 0.341332 0.351164
vt 0.348826 0.357730
vt 0.353289 0.351291
vt 0.436583 0.357780
vt 0.430388 0.351537
vt 0.436958 0.343352
vt 0.430517 0.338971
vt 0.437008 0.256289
vt 0.430759 0.262481
vt 0.423266 0.255914
vt 0.418802 0.262354
vt 0.349252 0.255605
vt 0.353663 0.262081
vt 0.422839 0.358039
vt 0.418428 0.351564
vt 0.437263 0.270721
vt 0.430784 0.275045
vt 0.334828 0.342924
vt 0.341307 0.338598
vn 0.0000 -0.0000 1.0000
vn 0.0000 1.0000 0.0000
vn 0.0000 0.0000 -1.0000
vn 1.0000 0.0000 0.0000
vn -1.0000 0.0000 0.0000
vn 0.0000 0.5019 -0.8650
vn -0.8690 0.4948 0.0000
vn 0.0000 0.5018 0.8650
vn 0.8690 0.4948 0.0000
vn 0.1912 -0.9608 -0.2009
vn 0.1910 -0.9608 -0.2011
vn 0.0000 -0.9259 -0.3779
vn -0.1912 -0.9608 -0.2009
vn -0.1910 -0.9608 -0.2011
vn -0.3779 -0.9259 -0.0000
vn -0.1912 -0.9608 0.2009
vn -0.1910 -0.9608 0.2011
vn 0.0000 -0.9259 0.3779
vn 0.1912 -0.9608 0.2009
vn 0.1910 -0.9608 0.2011
vn 0.3779 -0.9259 -0.0000
vn -0.7006 -0.7135 0.0063
vn -0.7069 -0.7073 -0.0000
vn -0.0412 -0.9983 0.0413
vn -0.0397 -0.9992 0.0000
vn -0.0086 -0.7130 0.7011
vn 0.0000 -0.7074 0.7068
vn 0.0000 -0.9992 0.0398
vn -0.7132 -0.0000 0.7009
vn -0.0210 -0.0000 0.9998
vn -0.0209 -0.0002 0.9998
vn -0.7006 0.7135 0.0063
vn -0.0412 0.9983 0.0413
vn -0.7069 0.7073 0.0000
vn -0.0397 0.9992 -0.0000
vn -0.0086 0.7130 0.7011
vn 0.0000 0.7074 0.7068
vn 0.0000 0.9992 0.0398
vn -0.7006 0.7135 -0.0063
vn -0.0408 0.9983 -0.0421
vn 0.0047 0.7122 -0.7020
vn 0.0000 0.7074 -0.7068
vn 0.0000 0.9992 -0.0394
vn -0.7132 0.0000 -0.7009
vn -0.0018 0.0000 -1.0000
vn -0.7006 -0.7135 -0.0063
vn -0.0408 -0.9983 -0.0421
vn 0.0047 -0.7121 -0.7020
vn -0.0000 -0.7074 -0.7068
vn -0.0000 -0.9992 -0.0394
vn 0.7014 -0.7128 -0.0070
vn 0.0420 -0.9983 0.0410
vn 0.7069 -0.7073 -0.0000
vn 0.0393 -0.9992 -0.0000
vn 0.0210 0.0001 0.9998
vn 0.7132 -0.0000 0.7009
vn 0.0210 -0.0000 0.9998
vn 0.0086 -0.7130 0.7011
vn 0.0086 0.7130 0.7011
vn 0.0420 0.9983 0.0410
vn 0.7014 0.7128 -0.0070
vn 0.7069 0.7073 0.0000
vn 0.0393 0.9992 0.0000
vn 0.7014 0.7128 0.0070
vn 0.0416 0.9983 -0.0418
vn 0.0018 -0.0002 -1.0000
vn 0.7132 0.0000 -0.7009
vn 0.0019 0.0000 -1.0000
vn -0.0047 0.7121 -0.7020
vn -0.0047 -0.7121 -0.7020
vn 0.0417 -0.9983 -0.0418
vn 0.7014 -0.7128 0.0070
vn 0.0000 -1.0000 -0.0000
vn -0.9998 0.0000 0.0181
vn 0.9993 0.0000 0.0379
vn -0.9998 0.0000 -0.0181
vn 0.9993 0.0000 -0.0379
vn -0.0086 1.0000 0.0000
vn -1.0000 -0.0086 -0.0000
vn 1.0000 0.0086 0.0000
vn -0.0043 0.5018 0.8650
vn 0.8647 0.5023 0.0000
vn -0.0043 0.5018 -0.8650
vn -0.8732 0.4873 0.0000
vn -0.1829 -0.9624 0.2009
vn -0.1827 -0.9624 0.2011
vn 0.0080 -0.9258 0.3779
vn 0.1995 -0.9591 0.2009
vn 0.1993 -0.9591 0.2011
vn 0.3858 -0.9226 -0.0000
vn 0.1995 -0.9591 -0.2009
vn 0.1993 -0.9591 -0.2011
vn 0.0080 -0.9258 -0.3779
vn -0.1829 -0.9624 -0.2009
vn -0.1827 -0.9624 -0.2011
vn -0.3699 -0.9291 -0.0000
g Mod_SmallCrate02_Mesh.003_lambert7
usemtl lambert7
s 1
f 7/1/1 23/2/1 1/3/1
f 1/3/1 23/2/1 24/4/1
f 1/5/2 24/6/2 15/7/2
f 15/7/2 24/6/2 25/8/2
f 3/9/3 27/10/3 6/11/3
f 6/11/3 27/10/3 28/12/3
f 8/13/4 13/14/4 2/15/4
f 2/15/4 13/14/4 14/16/4
f 16/17/5 7/18/5 15/19/5
f 15/19/5 7/18/5 1/20/5
f 9/21/4 5/22/4 10/23/4
f 10/23/4 5/22/4 4/24/4
f 11/25/2 26/26/2 3/27/2
f 3/27/2 26/26/2 27/28/2
f 6/29/5 12/30/5 3/31/5
f 3/31/5 12/30/5 11/32/5
f 10/23/4 14/16/4 9/21/4
f 9/21/4 14/16/4 13/14/4
f 11/25/2 15/7/2 26/26/2
f 26/26/2 15/7/2 25/8/2
f 12/30/5 16/17/5 11/32/5
f 11/32/5 16/17/5 15/19/5
f 17/33/1 8/34/1 18/35/1
f 18/35/1 8/34/1 2/36/1
f 19/37/2 18/38/2 14/39/2
f 14/39/2 18/38/2 2/40/2
f 19/37/2 14/39/2 20/41/2
f 20/41/2 14/39/2 10/42/2
f 21/43/2 20/41/2 4/44/2
f 4/44/2 20/41/2 10/42/2
f 22/45/3 21/46/3 5/47/3
f 5/47/3 21/46/3 4/48/3
f 17/33/1 18/35/1 23/2/1
f 23/2/1 18/35/1 24/4/1
f 18/38/2 19/37/2 24/6/2
f 24/6/2 19/37/2 25/8/2
f 20/41/2 21/43/2 26/26/2
f 26/26/2 21/43/2 27/28/2
f 21/46/3 22/45/3 27/10/3
f 27/10/3 22/45/3 28/12/3
f 25/49/6 19/50/6 31/51/6
f 31/51/6 19/50/6 29/52/6
f 30/53/7 29/54/7 20/55/7
f 20/55/7 29/54/7 19/56/7
f 32/57/8 30/58/8 26/59/8
f 26/59/8 30/58/8 20/60/8
f 31/61/9 32/62/9 25/63/9
f 25/63/9 32/62/9 26/64/9
f 5/65/10 33/66/11 22/67/12
f 22/67/12 33/66/11 34/68/12
f 6/69/13 35/70/14 12/71/15
f 12/71/15 35/70/14 36/72/15
f 7/73/16 37/74/17 23/75/18
f 23/75/18 37/74/17 38/76/18
f 8/77/19 39/78/20 13/79/21
f 13/79/21 39/78/20 40/80/21
f 5/65/10 9/81/21 33/66/11
f 33/66/11 9/81/21 41/82/21
f 9/81/21 13/79/21 41/82/21
f 41/82/21 13/79/21 40/80/21
f 16/83/15 12/71/15 42/84/15
f 42/84/15 12/71/15 36/72/15
f 7/73/16 16/83/15 37/74/17
f 37/74/17 16/83/15 42/84/15
f 8/77/19 17/85/18 39/78/20
f 39/78/20 17/85/18 43/86/18
f 28/87/12 22/67/12 44/88/12
f 44/88/12 22/67/12 34/68/12
f 38/76/18 43/86/18 23/75/18
f 23/75/18 43/86/18 17/85/18
f 6/69/13 28/87/12 35/70/14
f 35/70/14 28/87/12 44/88/12
f 47/89/22 79/90/23 48/91/24
f 48/91/24 79/90/23 80/92/25
f 49/93/26 48/91/24 75/94/27
f 75/94/27 48/91/24 76/95/28
f 47/96/29 49/97/30 51/98/29
f 51/98/29 49/97/30 52/99/31
f 51/100/32 50/101/33 84/102/34
f 84/102/34 50/101/33 83/103/35
f 52/104/36 77/105/37 50/101/33
f 50/101/33 77/105/37 78/106/38
f 53/107/39 84/102/34 54/108/40
f 54/108/40 84/102/34 83/103/35
f 55/109/41 54/108/40 71/110/42
f 71/110/42 54/108/40 72/111/43
f 53/112/44 55/113/45 57/114/44
f 57/114/44 55/113/45 58/115/45
f 57/116/46 56/117/47 79/90/23
f 79/90/23 56/117/47 80/92/25
f 58/118/48 73/119/49 56/117/47
f 56/117/47 73/119/49 74/120/50
f 60/121/51 59/122/52 82/123/53
f 82/123/53 59/122/52 81/124/54
f 61/125/55 60/126/56 63/127/57
f 63/127/57 60/126/56 64/128/56
f 61/129/58 75/94/27 59/122/52
f 59/122/52 75/94/27 76/95/28
f 63/130/59 62/131/60 77/105/37
f 77/105/37 62/131/60 78/106/38
f 64/132/61 85/133/62 62/131/60
f 62/131/60 85/133/62 86/134/63
f 66/135/64 65/136/65 85/133/62
f 85/133/62 65/136/65 86/134/63
f 67/137/66 66/138/67 69/139/68
f 69/139/68 66/138/67 70/140/67
f 67/141/69 71/110/42 65/136/65
f 65/136/65 71/110/42 72/111/43
f 69/142/70 68/143/71 73/119/49
f 73/119/49 68/143/71 74/120/50
f 70/144/72 82/123/53 68/143/71
f 68/143/71 82/123/53 81/124/54
f 50/101/33 78/106/38 83/103/35
f 83/103/35 78/106/38 45/145/2
f 48/91/24 80/92/25 76/95/28
f 76/95/28 80/92/25 46/146/73
f 59/122/52 76/95/28 81/124/54
f 81/124/54 76/95/28 46/146/73
f 62/131/60 86/134/63 78/106/38
f 78/106/38 86/134/63 45/145/2
f 69/139/68 73/147/3 67/137/66
f 67/137/66 73/147/3 71/148/3
f 63/127/57 77/149/1 61/125/55
f 61/125/55 77/149/1 75/150/1
f 55/113/45 71/148/3 58/115/45
f 58/115/45 71/148/3 73/147/3
f 49/97/30 75/150/1 52/99/31
f 52/99/31 75/150/1 77/149/1
f 54/108/40 83/103/35 72/111/43
f 72/111/43 83/103/35 45/145/2
f 56/117/47 74/120/50 80/92/25
f 80/92/25 74/120/50 46/146/73
f 68/143/71 81/124/54 74/120/50
f 74/120/50 81/124/54 46/146/73
f 65/136/65 72/111/43 86/134/63
f 86/134/63 72/111/43 45/145/2
f 57/151/74 79/152/5 53/153/74
f 53/153/74 79/152/5 84/154/5
f 66/155/75 85/156/4 70/157/75
f 70/157/75 85/156/4 82/158/4
f 51/159/76 84/154/5 47/160/76
f 47/160/76 84/154/5 79/152/5
f 60/161/77 82/158/4 64/162/77
f 64/162/77 82/158/4 85/156/4
f 47/89/22 48/91/24 49/93/26
f 50/101/33 51/100/32 52/104/36
f 53/107/39 54/108/40 55/109/41
f 56/117/47 57/116/46 58/118/48
f 59/122/52 60/121/51 61/129/58
f 62/131/60 63/130/59 64/132/61
f 65/136/65 66/135/64 67/141/69
f 68/143/71 69/142/70 70/144/72
f 93/163/3 109/164/3 87/165/3
f 87/165/3 109/164/3 110/166/3
f 87/167/78 110/168/78 101/169/78
f 101/169/78 110/168/78 111/170/78
f 89/171/1 113/172/1 92/173/1
f 92/173/1 113/172/1 114/174/1
f 94/175/79 99/176/79 88/177/79
f 88/177/79 99/176/79 100/178/79
f 102/179/80 93/180/80 101/181/80
f 101/181/80 93/180/80 87/182/80
f 95/183/79 91/184/79 96/185/79
f 96/185/79 91/184/79 90/186/79
f 97/187/78 112/188/78 89/189/78
f 89/189/78 112/188/78 113/190/78
f 92/191/80 98/192/80 89/193/80
f 89/193/80 98/192/80 97/194/80
f 96/185/79 100/178/79 95/183/79
f 95/183/79 100/178/79 99/176/79
f 97/187/78 101/169/78 112/188/78
f 112/188/78 101/169/78 111/170/78
f 98/192/80 102/179/80 97/194/80
f 97/194/80 102/179/80 101/181/80
f 103/195/3 94/196/3 104/197/3
f 104/197/3 94/196/3 88/198/3
f 105/199/78 104/200/78 100/201/78
f 100/201/78 104/200/78 88/202/78
f 105/199/78 100/201/78 106/203/78
f 106/203/78 100/201/78 96/204/78
f 107/205/78 106/203/78 90/206/78
f 90/206/78 106/203/78 96/204/78
f 108/207/1 107/208/1 91/209/1
f 91/209/1 107/208/1 90/210/1
f 103/195/3 104/197/3 109/164/3
f 109/164/3 104/197/3 110/166/3
f 104/200/78 105/199/78 110/168/78
f 110/168/78 105/199/78 111/170/78
f 106/203/78 107/205/78 112/188/78
f 112/188/78 107/205/78 113/190/78
f 107/208/1 108/207/1 113/172/1
f 113/172/1 108/207/1 114/174/1
f 111/211/81 105/212/81 117/213/81
f 117/213/81 105/212/81 115/214/81
f 116/215/82 115/216/82 106/217/82
f 106/217/82 115/216/82 105/218/82
f 118/219/83 116/220/83 112/221/83
f 112/221/83 116/220/83 106/222/83
f 117/223/84 118/224/84 111/225/84
f 111/225/84 118/224/84 112/226/84
f 91/227/85 119/228/86 108/229/87
f 108/229/87 119/228/86 120/230/87
f 92/231/88 121/232/89 98/233/90
f 98/233/90 121/232/89 122/234/90
f 93/235/91 123/236/92 109/237/93
f 109/237/93 123/236/92 124/238/93
f 94/239/94 125/240/95 99/241/96
f 99/241/96 125/240/95 126/242/96
f 91/227/85 95/243/96 119/228/86
f 119/228/86 95/243/96 127/244/96
f 95/243/96 99/241/96 127/244/96
f 127/244/96 99/241/96 126/242/96
f 102/245/90 98/233/90 128/246/90
f 128/246/90 98/233/90 122/234/90
f 93/235/91 102/245/90 123/236/92
f 123/236/92 102/245/90 128/246/90
f 94/239/94 103/247/93 125/240/95
f 125/240/95 103/247/93 129/248/93
f 114/249/87 108/229/87 130/250/87
f 130/250/87 108/229/87 120/230/87
f 124/238/93 129/248/93 109/237/93
f 109/237/93 129/248/93 103/247/93
f 92/231/88 114/249/87 121/232/89
f 121/232/89 114/249/87 130/250/87
